<svg width="32" height="32" viewBox="0 0 32 32" fill="none" xmlns="http://www.w3.org/2000/svg">
<path d="M5.33301 19.1111L15.0688 15.139C15.8098 14.8367 16.6408 14.843 17.3772 15.1564L26.6663 19.1111M5.33301 19.1111L15.0688 23.0831C15.8098 23.3854 16.6408 23.3792 17.3772 23.0657L26.6663 19.1111M5.33301 19.1111V22.4638C5.33301 22.8576 5.56422 23.2148 5.92357 23.3761L15.8083 27.8122C16.0739 27.9314 16.3782 27.929 16.6419 27.8055L26.0904 23.3808C26.4419 23.2162 26.6663 22.8632 26.6663 22.4751V19.1111" stroke="white" stroke-width="2"/>
<rect x="14.666" y="11.6666" width="2.66667" height="8" rx="1.33333" fill="white"/>
<circle cx="15.9995" cy="9" r="3" stroke="white" stroke-width="2"/>
</svg>
