<svg width="24" height="24" viewBox="0 0 24 24" fill="none" xmlns="http://www.w3.org/2000/svg">
<path fill-rule="evenodd" clip-rule="evenodd" d="M3.25 4C2.55964 4 2 4.55964 2 5.25V19C2 19.6904 2.55964 20.25 3.25 20.25H20.75C21.4404 20.25 22 19.6904 22 19V5.25C22 4.55964 21.4404 4 20.75 4H3.25ZM19.8155 5.25023C19.5753 5.24702 19.334 5.32936 19.1507 5.49726L11.9866 12.0601L4.82247 5.49726C4.73416 5.41637 4.63239 5.35533 4.52375 5.31416C4.41515 5.2729 4.29607 5.25014 4.17119 5.25014C4.0463 5.25014 3.92722 5.2729 3.81862 5.31416C3.71079 5.35503 3.60971 5.41547 3.52186 5.49548L3.51796 5.49906C3.33941 5.66358 3.25014 5.87873 3.25014 6.09389V15.6564C3.25014 16.1224 3.6625 16.5001 4.17119 16.5001C4.67987 16.5001 5.09224 16.1224 5.09224 15.6564V8.13088L11.2765 13.7961C11.2863 13.8051 11.2964 13.8139 11.3065 13.8224C11.3159 13.8318 11.3254 13.8409 11.3353 13.85C11.695 14.1795 12.2782 14.1795 12.6379 13.85L18.908 8.10604V15.6564C18.908 16.1224 19.3204 16.5001 19.8291 16.5001C20.3378 16.5001 20.7501 16.1224 20.7501 15.6564V6.09389C20.7501 5.6279 20.3378 5.25014 19.8291 5.25014L19.8155 5.25023Z" fill="white"/>
</svg>
