<svg width="24" height="24" viewBox="0 0 24 24" fill="none" xmlns="http://www.w3.org/2000/svg">
<path d="M20.7667 11.2838L12.6676 2.28482C12.3265 1.90506 11.6714 1.90506 11.3304 2.28482L3.23126 11.2838C3.11468 11.413 3.03816 11.5733 3.011 11.7452C2.98384 11.9171 3.00722 12.0932 3.07828 12.2521C3.22226 12.577 3.54442 12.7857 3.89988 12.7857H5.69968V19.085C5.69968 19.3237 5.79449 19.5526 5.96326 19.7214C6.13202 19.8901 6.36091 19.9849 6.59958 19.9849H9.29928C9.53795 19.9849 9.76684 19.8901 9.93561 19.7214C10.1044 19.5526 10.1992 19.3237 10.1992 19.085V15.4854H13.7988V19.085C13.7988 19.3237 13.8936 19.5526 14.0624 19.7214C14.2311 19.8901 14.46 19.9849 14.6987 19.9849H17.3984C17.637 19.9849 17.8659 19.8901 18.0347 19.7214C18.2035 19.5526 18.2983 19.3237 18.2983 19.085V12.7857H20.0981C20.2724 12.7865 20.4431 12.7365 20.5895 12.6419C20.7358 12.5473 20.8515 12.4121 20.9224 12.2529C20.9933 12.0937 21.0163 11.9173 20.9886 11.7452C20.961 11.5731 20.8839 11.4128 20.7667 11.2838Z" fill="white"/>
</svg>
