<svg width="24" height="24" viewBox="0 0 24 24" fill="none" xmlns="http://www.w3.org/2000/svg">
<path d="M20 12C20 16.4183 16.4183 20 12 20C7.58172 20 4 16.4183 4 12C4 7.58172 7.58172 4 12 4C16.4183 4 20 7.58172 20 12Z" stroke="white" stroke-width="2"/>
<mask id="mask0_2215_2321" style="mask-type:alpha" maskUnits="userSpaceOnUse" x="3" y="3" width="18" height="18">
<circle cx="12" cy="12" r="8" fill="#D9D9D9" stroke="white" stroke-width="2"/>
</mask>
<g mask="url(#mask0_2215_2321)">
<path d="M9.46169 2.9997C9.46169 1.4703 10.5982 0.230469 12.0001 0.230469C13.4021 0.230469 14.5386 1.4703 14.5386 2.9997V6.46124C14.5386 7.99064 13.4021 9.23047 12.0001 9.23047C10.5982 9.23047 9.46169 7.99064 9.46169 6.46124V2.9997Z" fill="white"/>
<path d="M4.38477 2.9997C4.38477 1.4703 5.52127 0.230469 6.92323 0.230469C8.32518 0.230469 9.46169 1.4703 9.46169 2.9997V6.46124C9.46169 7.99064 8.32518 9.23047 6.92323 9.23047C5.52127 9.23047 4.38477 7.99064 4.38477 6.46124V2.9997Z" fill="white"/>
<path d="M14.5386 2.9997C14.5386 1.4703 15.6751 0.230469 17.0771 0.230469C18.479 0.230469 19.6155 1.4703 19.6155 2.9997V6.46124C19.6155 7.99064 18.479 9.23047 17.0771 9.23047C15.6751 9.23047 14.5386 7.99064 14.5386 6.46124V2.9997Z" fill="white"/>
</g>
<circle cx="8.19276" cy="12.3461" r="1.03846" fill="white"/>
<circle cx="15.808" cy="12.3461" r="1.03846" fill="white"/>
<path d="M9.23047 14.0771V14.0771C10.2627 16.5287 13.7367 16.5287 14.7689 14.0771V14.0771" stroke="white" stroke-width="1.5"/>
</svg>
