<svg width="90" height="90" viewBox="0 0 90 90" fill="none" xmlns="http://www.w3.org/2000/svg">
<g clip-path="url(#clip0_8497_3)">
<path d="M82.5 37.5V22.5C82.5 18.375 79.125 15 75 15H15C10.875 15 7.5 18.375 7.5 22.5V37.5C11.625 37.5 15 40.875 15 45C15 49.125 11.625 52.5 7.5 52.5V67.5C7.5 71.625 10.875 75 15 75H75C79.125 75 82.5 71.625 82.5 67.5V52.5C78.375 52.5 75 49.125 75 45C75 40.875 78.375 37.5 82.5 37.5ZM56.625 60.75L45 54L33.375 61.125L36.375 48L26.25 39L39.75 37.875L45 25.5L50.25 37.875L63.75 39L53.625 48L56.625 60.75Z" fill="black"/>
</g>
<defs>
<clipPath id="clip0_8497_3">
<rect width="90" height="90" fill="white"/>
</clipPath>
</defs>
</svg>
