<svg width="24" height="24" viewBox="0 0 24 24" fill="none" xmlns="http://www.w3.org/2000/svg">
<path d="M3 4.05C3 3.75 3.1 3.5 3.3 3.3C3.5 3.1 3.75 3 4.05 3L8.1 3C8.33333 3 8.53767 3.075 8.713 3.225C8.88767 3.375 9 3.56667 9.05 3.8L9.75 7.25C9.78333 7.48333 9.76267 7.721 9.688 7.963C9.61267 8.20433 9.5 8.4 9.35 8.55L7 10.9C7.76667 12.1667 8.675 13.325 9.725 14.375C10.775 15.425 11.9 16.3 13.1 17L15.55 14.6C15.7 14.45 15.871 14.354 16.063 14.312C16.2543 14.2707 16.4667 14.2667 16.7 14.3L20.2 14.95C20.4333 14.9833 20.625 15.0917 20.775 15.275C20.925 15.4583 21 15.6667 21 15.9L21 19.95C21 20.25 20.9 20.5 20.7 20.7C20.5 20.9 20.25 21 19.95 21C17.8 21 15.7043 20.5207 13.663 19.562C11.621 18.604 9.81267 17.3373 8.238 15.762C6.66267 14.1873 5.396 12.3793 4.438 10.338C3.47933 8.296 3 6.2 3 4.05Z" fill="white"/>
</svg>
