<svg width="24" height="24" viewBox="0 0 24 24" fill="none" xmlns="http://www.w3.org/2000/svg">
<path d="M10.5 21C5.80558 21 2 16.9706 2 12C2 7.02944 5.80558 3 10.5 3C15.1944 3 19 7.02944 19 12C19 16.9706 15.1944 21 10.5 21Z" stroke="white" stroke-width="2" stroke-linecap="round" stroke-linejoin="round"/>
<path d="M11 3C14.667 3 22 3.9 22 12C22 20.1 14.667 21 11 21" stroke="white" stroke-width="2"/>
<path d="M13.936 10.216C13.936 10.664 13.828 11.084 13.612 11.476C13.404 11.868 13.072 12.184 12.616 12.424C12.168 12.664 11.6 12.784 10.912 12.784H9.508V16H7.828V7.624H10.912C11.56 7.624 12.112 7.736 12.568 7.96C13.024 8.184 13.364 8.492 13.588 8.884C13.82 9.276 13.936 9.72 13.936 10.216ZM10.84 11.428C11.304 11.428 11.648 11.324 11.872 11.116C12.096 10.9 12.208 10.6 12.208 10.216C12.208 9.4 11.752 8.992 10.84 8.992H9.508V11.428H10.84Z" fill="white"/>
</svg>
