<svg width="30" height="14" viewBox="0 0 30 14" fill="none" xmlns="http://www.w3.org/2000/svg">
<path d="M9.26367 5.87207V8.07812H0.492188V5.87207H9.26367ZM6.08203 2.40039V11.7168H3.68262V2.40039H6.08203ZM17.2178 0.0712891H17.5869V2.09277H17.4375C16.7695 2.09277 16.1748 2.19238 15.6533 2.3916C15.1318 2.59082 14.6895 2.875 14.3262 3.24414C13.9688 3.60742 13.6934 4.04688 13.5 4.5625C13.3125 5.07812 13.2188 5.65527 13.2188 6.29395V8.4209C13.2188 8.87793 13.2627 9.28223 13.3506 9.63379C13.4443 9.97949 13.5762 10.2695 13.7461 10.5039C13.9219 10.7324 14.127 10.9053 14.3613 11.0225C14.5957 11.1338 14.8594 11.1895 15.1523 11.1895C15.4277 11.1895 15.6768 11.1309 15.8994 11.0137C16.1279 10.8965 16.3213 10.7324 16.4795 10.5215C16.6436 10.3047 16.7666 10.0527 16.8486 9.76562C16.9365 9.47266 16.9805 9.15332 16.9805 8.80762C16.9805 8.46191 16.9365 8.14258 16.8486 7.84961C16.7666 7.55664 16.6436 7.30469 16.4795 7.09375C16.3154 6.87695 16.1162 6.70996 15.8818 6.59277C15.6475 6.47559 15.3838 6.41699 15.0908 6.41699C14.6924 6.41699 14.3408 6.51074 14.0361 6.69824C13.7373 6.87988 13.5029 7.11426 13.333 7.40137C13.1631 7.68848 13.0723 7.99023 13.0605 8.30664L12.2959 7.81445C12.3135 7.36328 12.4072 6.93555 12.5771 6.53125C12.7529 6.12695 12.9932 5.76953 13.2979 5.45898C13.6084 5.14258 13.9805 4.89648 14.4141 4.7207C14.8477 4.53906 15.3369 4.44824 15.8818 4.44824C16.4795 4.44824 17.0039 4.5625 17.4551 4.79102C17.9121 5.01953 18.293 5.33301 18.5977 5.73145C18.9023 6.12988 19.1309 6.58984 19.2832 7.11133C19.4355 7.63281 19.5117 8.18945 19.5117 8.78125C19.5117 9.40234 19.4092 9.97949 19.2041 10.5127C19.0049 11.0459 18.7148 11.5117 18.334 11.9102C17.959 12.3086 17.5078 12.6191 16.9805 12.8418C16.4531 13.0645 15.8613 13.1758 15.2051 13.1758C14.5254 13.1758 13.9072 13.0527 13.3506 12.8066C12.7998 12.5547 12.3252 12.2031 11.9268 11.752C11.5283 11.3008 11.2207 10.7646 11.0039 10.1436C10.793 9.52246 10.6875 8.84277 10.6875 8.10449V7.12012C10.6875 6.08887 10.8369 5.14551 11.1357 4.29004C11.4404 3.42871 11.877 2.68457 12.4453 2.05762C13.0137 1.4248 13.6992 0.935547 14.502 0.589844C15.3047 0.244141 16.21 0.0712891 17.2178 0.0712891ZM29.7773 11.0225V13H21.0234V11.3125L25.1631 6.87402C25.5791 6.41113 25.9072 6.00391 26.1475 5.65234C26.3877 5.29492 26.5605 4.97559 26.666 4.69434C26.7773 4.40723 26.833 4.13477 26.833 3.87695C26.833 3.49023 26.7686 3.15918 26.6396 2.88379C26.5107 2.60254 26.3203 2.38574 26.0684 2.2334C25.8223 2.08105 25.5176 2.00488 25.1543 2.00488C24.7676 2.00488 24.4336 2.09863 24.1523 2.28613C23.877 2.47363 23.666 2.73438 23.5195 3.06836C23.3789 3.40234 23.3086 3.78027 23.3086 4.20215H20.7686C20.7686 3.44043 20.9502 2.74316 21.3135 2.11035C21.6768 1.47168 22.1895 0.964844 22.8516 0.589844C23.5137 0.208984 24.2988 0.0185547 25.207 0.0185547C26.1035 0.0185547 26.8594 0.165039 27.4746 0.458008C28.0957 0.745117 28.5645 1.16113 28.8809 1.70605C29.2031 2.24512 29.3643 2.88965 29.3643 3.63965C29.3643 4.06152 29.2969 4.47461 29.1621 4.87891C29.0273 5.27734 28.834 5.67578 28.582 6.07422C28.3359 6.4668 28.0371 6.86523 27.6855 7.26953C27.334 7.67383 26.9443 8.09277 26.5166 8.52637L24.293 11.0225H29.7773Z" fill="#535353"/>
</svg>
