<svg width="24" height="24" viewBox="0 0 24 24" fill="none" xmlns="http://www.w3.org/2000/svg">
<path d="M16.1538 4.00208C15.2105 3.97223 14.2852 4.2645 13.5302 4.83077C12.7752 5.39704 12.2355 6.20353 12 7.11746C11.7645 6.20353 11.2248 5.39704 10.4698 4.83077C9.71481 4.2645 8.78946 3.97223 7.84615 4.00208C5.448 3.92593 4.71 6.48746 5.51723 8.15316H3.69231C3.5087 8.15316 3.33261 8.2261 3.20277 8.35593C3.07294 8.48576 3 8.66185 3 8.84546V10.2301C3 10.4137 3.07294 10.5898 3.20277 10.7196C3.33261 10.8494 3.5087 10.9224 3.69231 10.9224H20.3077C20.4913 10.9224 20.6674 10.8494 20.7972 10.7196C20.9271 10.5898 21 10.4137 21 10.2301V8.84546C21 8.66185 20.9271 8.48576 20.7972 8.35593C20.6674 8.2261 20.4913 8.15316 20.3077 8.15316H18.4994C19.3385 6.51239 18.6351 4.00069 16.2092 4.00069H16.1538V4.00208ZM16.4072 8.15316H13.3846C13.3853 7.41919 13.6774 6.71554 14.1967 6.1968C14.7159 5.67807 15.4199 5.38669 16.1538 5.38669C17.7808 5.38669 18.0688 7.97869 16.4072 8.15316ZM10.6154 8.15316H7.55815C6.12508 7.99116 6.04062 5.53069 7.61354 5.38669C7.69091 5.37961 7.76878 5.37961 7.84615 5.38669C8.58012 5.38669 9.28407 5.67807 9.80332 6.1968C10.3226 6.71554 10.6147 7.41919 10.6154 8.15316ZM4.38462 12.3084V18.5392C4.38462 19.09 4.60343 19.6183 4.99293 20.0078C5.38243 20.3973 5.9107 20.6161 6.46154 20.6161H10.6154V12.3084H4.38462ZM13.3846 12.3084V20.6161H17.5385C18.0893 20.6161 18.6176 20.3973 19.0071 20.0078C19.3966 19.6183 19.6154 19.09 19.6154 18.5392V12.3084H13.3846Z" fill="white"/>
</svg>
