<svg width="24" height="24" viewBox="0 0 24 24" fill="none" xmlns="http://www.w3.org/2000/svg">
<path d="M12.1 21L11.875 18.3H11.65C9.52 18.3 7.7125 17.5575 6.2275 16.0725C4.7425 14.5875 4 12.78 4 10.65C4 8.52 4.7425 6.7125 6.2275 5.2275C7.7125 3.7425 9.52 3 11.65 3C12.715 3 13.7086 3.1986 14.6308 3.5958C15.5536 3.9936 16.3639 4.5411 17.0617 5.2383C17.7589 5.9361 18.3061 6.7461 18.7033 7.6683C19.1011 8.5911 19.3 9.585 19.3 10.65C19.3 11.775 19.1164 12.855 18.7492 13.89C18.3814 14.925 17.8789 15.885 17.2417 16.77C16.6039 17.655 15.8464 18.4575 14.9692 19.1775C14.0914 19.8975 13.135 20.505 12.1 21ZM11.6275 15.5775C11.8825 15.5775 12.1 15.4875 12.28 15.3075C12.46 15.1275 12.55 14.91 12.55 14.655C12.55 14.4 12.46 14.1825 12.28 14.0025C12.1 13.8225 11.8825 13.7325 11.6275 13.7325C11.3725 13.7325 11.155 13.8225 10.975 14.0025C10.795 14.1825 10.705 14.4 10.705 14.655C10.705 14.91 10.795 15.1275 10.975 15.3075C11.155 15.4875 11.3725 15.5775 11.6275 15.5775ZM10.975 12.72H12.325C12.325 12.27 12.37 11.955 12.46 11.775C12.55 11.595 12.835 11.265 13.315 10.785C13.585 10.515 13.81 10.2225 13.99 9.9075C14.17 9.5925 14.26 9.255 14.26 8.895C14.26 8.13 14.0014 7.5561 13.4842 7.1733C12.9664 6.7911 12.355 6.6 11.65 6.6C10.99 6.6 10.435 6.7836 9.985 7.1508C9.535 7.5186 9.22 7.965 9.04 8.49L10.3 8.985C10.375 8.73 10.5175 8.4786 10.7275 8.2308C10.9375 7.9836 11.245 7.86 11.65 7.86C12.055 7.86 12.3589 7.9725 12.5617 8.1975C12.7639 8.4225 12.865 8.67 12.865 8.94C12.865 9.195 12.79 9.4236 12.64 9.6258C12.49 9.8286 12.31 10.035 12.1 10.245C11.575 10.695 11.2564 11.0511 11.1442 11.3133C11.0314 11.5761 10.975 12.045 10.975 12.72Z" fill="white"/>
</svg>
